# xmcd CD database file
#
# Track frame offsets:
#	150
#	20096
#	37973
#	55096
#	73115
#	91196
#	103363
#	120963
#	144377
#	158750
#	177433
#	194393
#	213815
#	234402
#	248654
#	268584
#	291459
#	310442
#	326901
#
# Disc length: 4657 seconds
#
# Revision: 1
# Processed by: cddbd v1.5.2PL0 Copyright (c) Steve Scherf et al.
# Submitted via: CDex 1.51
#
DISCID=16122f13
DTITLE=Various Artist - ZM-80's-BS-CD-1
DYEAR=1900
DGENRE=Blues
TTITLE0=Cutting Crew - I Just Died In Your Arms
TTITLE1=Steve Miller Band The - Abracadabra
TTITLE2=Heart - Alone
TTITLE3=Blondie - Atomic
TTITLE4=Ramones The - Baby I Love You
TTITLE5=Madness - Baggy Trousers
TTITLE6=Kim Carnes - Bette Davis Eyes
TTITLE7=Michael Jackson - Billie Jean
TTITLE8=Matthew Wilder - Break My Stride
TTITLE9=Swing Out Sister - Breakout
TTITLE10=J Geils Band - Centerfold
TTITLE11=T'Pau - China In Your Hand
TTITLE12=Culture Club - Do You Really Want To Hurt Me
TTITLE13=Yazoo - Don't Go
TTITLE14=Tears For Fears - Everybody Wants To Rule The World
TTITLE15=Tracy Chapman - Fast Car
TTITLE16=Irene Cara - Flashdance What A Feeling
TTITLE17=Dexy's Midnight Runner's - Geno
TTITLE18=Kool And The Gang - Get Down On It
EXTD=
EXTT0=
EXTT1=
EXTT2=
EXTT3=
EXTT4=
EXTT5=
EXTT6=
EXTT7=
EXTT8=
EXTT9=
EXTT10=
EXTT11=
EXTT12=
EXTT13=
EXTT14=
EXTT15=
EXTT16=
EXTT17=
EXTT18=
PLAYORDER=
